<svg xmlns="http://www.w3.org/2000/svg" xmlns:xlink="http://www.w3.org/1999/xlink" width="256" zoomAndPan="magnify" viewBox="0 0 192 48" height="64" preserveAspectRatio="xMidYMid meet" version="1.0"><defs><g/><clipPath id="14b865901f"><rect x="0" width="59" y="0" height="22"/></clipPath><clipPath id="813cbd97e2"><path d="M 0.00390625 3 L 5 3 L 5 9 L 0.00390625 9 Z M 0.00390625 3 " clip-rule="nonzero"/></clipPath><clipPath id="57d4dad843"><rect x="0" width="32" y="0" height="12"/></clipPath><clipPath id="90b581736b"><path d="M 30.589844 0 L 74.671875 0 L 74.671875 47.019531 L 30.589844 47.019531 Z M 30.589844 0 " clip-rule="nonzero"/></clipPath></defs><g transform="matrix(1, 0, 0, 1, 78, 10)"><g clip-path="url(#14b865901f)"><g fill="#000000" fill-opacity="1"><g transform="translate(0.574808, 17.337413)"><g><path d="M 12.5625 0 L 12.546875 -7.328125 L 8.953125 -1.296875 L 7.671875 -1.296875 L 4.09375 -7.171875 L 4.09375 0 L 1.453125 0 L 1.453125 -12.21875 L 3.78125 -12.21875 L 8.359375 -4.625 L 12.859375 -12.21875 L 15.1875 -12.21875 L 15.21875 0 Z M 12.5625 0 "/></g></g></g><g fill="#000000" fill-opacity="1"><g transform="translate(18.108176, 17.337413)"><g><path d="M 9.5 -2.625 L 3.828125 -2.625 L 2.734375 0 L -0.15625 0 L 5.28125 -12.21875 L 8.078125 -12.21875 L 13.546875 0 L 10.578125 0 Z M 8.609375 -4.765625 L 6.671875 -9.4375 L 4.734375 -4.765625 Z M 8.609375 -4.765625 "/></g></g></g><g fill="#000000" fill-opacity="1"><g transform="translate(32.344254, 17.337413)"><g><path d="M 3.984375 -9.90625 L 0.0625 -9.90625 L 0.0625 -12.21875 L 10.71875 -12.21875 L 10.71875 -9.90625 L 6.8125 -9.90625 L 6.8125 0 L 3.984375 0 Z M 3.984375 -9.90625 "/></g></g></g><g fill="#000000" fill-opacity="1"><g transform="translate(43.99833, 17.337413)"><g><path d="M 9.5 -2.625 L 3.828125 -2.625 L 2.734375 0 L -0.15625 0 L 5.28125 -12.21875 L 8.078125 -12.21875 L 13.546875 0 L 10.578125 0 Z M 8.609375 -4.765625 L 6.671875 -9.4375 L 4.734375 -4.765625 Z M 8.609375 -4.765625 "/></g></g></g></g></g><g transform="matrix(1, 0, 0, 1, 92, 28)"><g clip-path="url(#57d4dad843)"><g clip-path="url(#813cbd97e2)"><g fill="#000000" fill-opacity="1"><g transform="translate(0.42526, 8.704032)"><g><path d="M 2.265625 0.046875 C 1.910156 0.046875 1.59375 -0.0078125 1.3125 -0.125 C 1.039062 -0.25 0.828125 -0.421875 0.671875 -0.640625 C 0.515625 -0.867188 0.4375 -1.125 0.4375 -1.40625 L 1.171875 -1.40625 C 1.191406 -1.15625 1.289062 -0.945312 1.46875 -0.78125 C 1.65625 -0.613281 1.921875 -0.53125 2.265625 -0.53125 C 2.585938 -0.53125 2.84375 -0.609375 3.03125 -0.765625 C 3.21875 -0.929688 3.3125 -1.144531 3.3125 -1.40625 C 3.3125 -1.613281 3.253906 -1.78125 3.140625 -1.90625 C 3.035156 -2.03125 2.898438 -2.125 2.734375 -2.1875 C 2.566406 -2.25 2.34375 -2.320312 2.0625 -2.40625 C 1.707031 -2.488281 1.425781 -2.578125 1.21875 -2.671875 C 1.007812 -2.765625 0.832031 -2.90625 0.6875 -3.09375 C 0.539062 -3.289062 0.46875 -3.554688 0.46875 -3.890625 C 0.46875 -4.171875 0.539062 -4.421875 0.6875 -4.640625 C 0.832031 -4.867188 1.035156 -5.039062 1.296875 -5.15625 C 1.566406 -5.28125 1.875 -5.34375 2.21875 -5.34375 C 2.707031 -5.34375 3.109375 -5.21875 3.421875 -4.96875 C 3.742188 -4.726562 3.925781 -4.40625 3.96875 -4 L 3.203125 -4 C 3.179688 -4.195312 3.078125 -4.375 2.890625 -4.53125 C 2.703125 -4.6875 2.453125 -4.765625 2.140625 -4.765625 C 1.859375 -4.765625 1.625 -4.6875 1.4375 -4.53125 C 1.257812 -4.382812 1.171875 -4.175781 1.171875 -3.90625 C 1.171875 -3.71875 1.222656 -3.5625 1.328125 -3.4375 C 1.441406 -3.320312 1.578125 -3.226562 1.734375 -3.15625 C 1.890625 -3.09375 2.113281 -3.023438 2.40625 -2.953125 C 2.75 -2.847656 3.023438 -2.75 3.234375 -2.65625 C 3.453125 -2.570312 3.632812 -2.429688 3.78125 -2.234375 C 3.9375 -2.035156 4.015625 -1.769531 4.015625 -1.4375 C 4.015625 -1.175781 3.945312 -0.929688 3.8125 -0.703125 C 3.675781 -0.484375 3.472656 -0.300781 3.203125 -0.15625 C 2.929688 -0.0195312 2.617188 0.046875 2.265625 0.046875 Z M 2.265625 0.046875 "/></g></g></g></g><g fill="#000000" fill-opacity="1"><g transform="translate(6.393658, 8.704032)"><g><path d="M 3.828125 -5.28125 L 3.828125 -4.71875 L 2.390625 -4.71875 L 2.390625 0 L 1.703125 0 L 1.703125 -4.71875 L 0.25 -4.71875 L 0.25 -5.28125 Z M 3.828125 -5.28125 "/></g></g></g><g fill="#000000" fill-opacity="1"><g transform="translate(12.013218, 8.704032)"><g><path d="M 2.984375 0.046875 C 2.492188 0.046875 2.046875 -0.0664062 1.640625 -0.296875 C 1.234375 -0.523438 0.910156 -0.84375 0.671875 -1.25 C 0.441406 -1.664062 0.328125 -2.128906 0.328125 -2.640625 C 0.328125 -3.160156 0.441406 -3.625 0.671875 -4.03125 C 0.910156 -4.445312 1.234375 -4.769531 1.640625 -5 C 2.046875 -5.226562 2.492188 -5.34375 2.984375 -5.34375 C 3.472656 -5.34375 3.921875 -5.226562 4.328125 -5 C 4.734375 -4.769531 5.050781 -4.445312 5.28125 -4.03125 C 5.507812 -3.625 5.625 -3.160156 5.625 -2.640625 C 5.625 -2.117188 5.507812 -1.65625 5.28125 -1.25 C 5.050781 -0.84375 4.734375 -0.523438 4.328125 -0.296875 C 3.921875 -0.0664062 3.472656 0.046875 2.984375 0.046875 Z M 2.984375 -0.546875 C 3.347656 -0.546875 3.675781 -0.628906 3.96875 -0.796875 C 4.269531 -0.972656 4.503906 -1.21875 4.671875 -1.53125 C 4.835938 -1.851562 4.921875 -2.222656 4.921875 -2.640625 C 4.921875 -3.066406 4.835938 -3.4375 4.671875 -3.75 C 4.503906 -4.070312 4.269531 -4.316406 3.96875 -4.484375 C 3.675781 -4.660156 3.347656 -4.75 2.984375 -4.75 C 2.609375 -4.75 2.269531 -4.660156 1.96875 -4.484375 C 1.675781 -4.316406 1.445312 -4.070312 1.28125 -3.75 C 1.113281 -3.4375 1.03125 -3.066406 1.03125 -2.640625 C 1.03125 -2.222656 1.113281 -1.851562 1.28125 -1.53125 C 1.445312 -1.21875 1.675781 -0.972656 1.96875 -0.796875 C 2.269531 -0.628906 2.609375 -0.546875 2.984375 -0.546875 Z M 2.984375 -0.546875 "/></g></g></g><g fill="#000000" fill-opacity="1"><g transform="translate(19.490709, 8.704032)"><g><path d="M 3.359375 0 L 2.109375 -2.15625 L 1.265625 -2.15625 L 1.265625 0 L 0.578125 0 L 0.578125 -5.28125 L 2.28125 -5.28125 C 2.6875 -5.28125 3.023438 -5.210938 3.296875 -5.078125 C 3.578125 -4.941406 3.785156 -4.753906 3.921875 -4.515625 C 4.054688 -4.285156 4.125 -4.023438 4.125 -3.734375 C 4.125 -3.367188 4.019531 -3.046875 3.8125 -2.765625 C 3.601562 -2.484375 3.285156 -2.300781 2.859375 -2.21875 L 4.1875 0 Z M 1.265625 -2.71875 L 2.28125 -2.71875 C 2.65625 -2.71875 2.9375 -2.804688 3.125 -2.984375 C 3.3125 -3.171875 3.40625 -3.421875 3.40625 -3.734375 C 3.40625 -4.046875 3.3125 -4.285156 3.125 -4.453125 C 2.945312 -4.628906 2.664062 -4.71875 2.28125 -4.71875 L 1.265625 -4.71875 Z M 1.265625 -2.71875 "/></g></g></g><g fill="#000000" fill-opacity="1"><g transform="translate(25.618358, 8.704032)"><g><path d="M 1.265625 -4.71875 L 1.265625 -2.953125 L 3.203125 -2.953125 L 3.203125 -2.390625 L 1.265625 -2.390625 L 1.265625 -0.5625 L 3.421875 -0.5625 L 3.421875 0 L 0.578125 0 L 0.578125 -5.296875 L 3.421875 -5.296875 L 3.421875 -4.71875 Z M 1.265625 -4.71875 "/></g></g></g></g></g><g clip-path="url(#90b581736b)"><path fill="#cf0026" d="M 60.75 9.125 L 60.75 12.429688 L 59.867188 12.429688 L 59.867188 9.125 L 44.101562 9.125 L 44.101562 12.429688 L 43.214844 12.429688 L 43.214844 9.125 L 38.210938 9.125 L 31.675781 40.023438 L 38.371094 40.023438 L 40.152344 16.890625 L 40.183594 16.484375 L 48.648438 16.484375 L 48.746094 16.792969 L 52.105469 27.417969 L 55.46875 16.792969 L 55.566406 16.484375 L 63.785156 16.484375 L 63.816406 16.890625 L 65.628906 40.429688 L 65.664062 40.898438 L 57.753906 40.898438 L 57.734375 40.480469 L 57.265625 30.117188 L 55.035156 36.949219 L 54.9375 37.253906 L 49.019531 37.253906 L 48.921875 36.949219 L 46.707031 30.128906 L 46.242188 40.480469 L 46.222656 40.898438 L 39.179688 40.898438 L 38.707031 46.140625 L 73.582031 46.140625 L 65.753906 9.125 Z M 39.253906 40.023438 L 45.378906 40.023438 L 45.9375 27.664062 L 46.796875 27.546875 L 49.660156 36.378906 L 54.292969 36.378906 L 57.175781 27.546875 L 58.035156 27.664062 L 58.597656 40.023438 L 64.710938 40.023438 L 62.964844 17.363281 L 56.214844 17.363281 L 52.523438 29.011719 L 51.679688 29.011719 L 48 17.363281 L 41 17.363281 Z M 59.855469 8.246094 C 59.742188 6.265625 58.886719 4.480469 57.558594 3.164062 C 56.132812 1.753906 54.160156 0.878906 51.984375 0.878906 C 49.804688 0.878906 47.835938 1.753906 46.410156 3.164062 C 45.078125 4.480469 44.222656 6.265625 44.113281 8.246094 Z M 43.226562 8.246094 C 43.335938 6.023438 44.292969 4.023438 45.785156 2.546875 C 47.371094 0.976562 49.5625 0.00390625 51.984375 0.00390625 C 54.402344 0.00390625 56.597656 0.976562 58.183594 2.546875 C 59.671875 4.023438 60.628906 6.023438 60.738281 8.246094 L 66.46875 8.246094 L 66.542969 8.597656 L 74.558594 46.488281 L 74.671875 47.015625 L 37.746094 47.015625 L 37.789062 46.539062 L 38.296875 40.898438 L 30.589844 40.898438 L 30.699219 40.371094 L 37.421875 8.597656 L 37.496094 8.246094 Z M 43.226562 8.246094 " fill-opacity="1" fill-rule="nonzero"/><path fill="#cf0026" d="M 60.75 9.125 L 60.75 12.429688 L 59.867188 12.429688 L 59.867188 9.125 L 44.101562 9.125 L 44.101562 12.429688 L 43.214844 12.429688 L 43.214844 9.125 L 38.210938 9.125 L 31.675781 40.023438 L 38.371094 40.023438 L 40.152344 16.890625 L 40.183594 16.484375 L 48.648438 16.484375 L 48.746094 16.792969 L 52.105469 27.417969 L 55.46875 16.792969 L 55.566406 16.484375 L 63.785156 16.484375 L 63.816406 16.890625 L 65.628906 40.429688 L 65.664062 40.898438 L 57.753906 40.898438 L 57.734375 40.480469 L 57.265625 30.117188 L 55.035156 36.949219 L 54.9375 37.253906 L 49.019531 37.253906 L 48.921875 36.949219 L 46.707031 30.128906 L 46.242188 40.480469 L 46.222656 40.898438 L 39.179688 40.898438 L 38.707031 46.140625 L 73.582031 46.140625 L 65.753906 9.125 Z M 39.253906 40.023438 L 45.378906 40.023438 L 45.9375 27.664062 L 46.796875 27.546875 L 49.660156 36.378906 L 54.292969 36.378906 L 57.175781 27.546875 L 58.035156 27.664062 L 58.597656 40.023438 L 64.710938 40.023438 L 62.964844 17.363281 L 56.214844 17.363281 L 52.523438 29.011719 L 51.679688 29.011719 L 48 17.363281 L 41 17.363281 Z M 59.855469 8.246094 C 59.742188 6.265625 58.886719 4.480469 57.558594 3.164062 C 56.132812 1.753906 54.160156 0.878906 51.984375 0.878906 C 49.804688 0.878906 47.835938 1.753906 46.410156 3.164062 C 45.078125 4.480469 44.222656 6.265625 44.113281 8.246094 Z M 43.226562 8.246094 C 43.335938 6.023438 44.292969 4.023438 45.785156 2.546875 C 47.371094 0.976562 49.5625 0.00390625 51.984375 0.00390625 C 54.402344 0.00390625 56.597656 0.976562 58.183594 2.546875 C 59.671875 4.023438 60.628906 6.023438 60.738281 8.246094 L 66.46875 8.246094 L 66.542969 8.597656 L 74.558594 46.488281 L 74.671875 47.015625 L 37.746094 47.015625 L 37.789062 46.539062 L 38.296875 40.898438 L 30.589844 40.898438 L 30.699219 40.371094 L 37.421875 8.597656 L 37.496094 8.246094 Z M 43.226562 8.246094 " fill-opacity="1" fill-rule="nonzero"/><path fill="#000000" d="M 60.609375 9.171875 L 60.609375 12.492188 L 59.726562 12.492188 L 59.726562 9.171875 L 44.035156 9.171875 L 44.035156 12.492188 L 43.15625 12.492188 L 43.15625 9.171875 L 38.175781 9.171875 L 31.671875 40.230469 L 38.332031 40.230469 L 40.105469 16.976562 L 40.136719 16.570312 L 48.566406 16.570312 L 48.660156 16.878906 L 52.003906 27.558594 L 55.351562 16.878906 L 55.449219 16.570312 L 63.628906 16.570312 L 63.660156 16.976562 L 65.460938 40.636719 L 65.5 41.109375 L 57.625 41.109375 L 57.609375 40.6875 L 57.140625 30.269531 L 54.921875 37.140625 L 54.820312 37.445312 L 48.933594 37.445312 L 48.835938 37.140625 L 46.632812 30.285156 L 46.167969 40.6875 L 46.148438 41.109375 L 39.140625 41.109375 L 38.667969 46.378906 L 73.382812 46.378906 L 65.589844 9.171875 Z M 39.214844 40.230469 L 45.3125 40.230469 L 45.863281 27.804688 L 46.71875 27.691406 L 49.570312 36.566406 L 54.183594 36.566406 L 57.050781 27.691406 L 57.90625 27.804688 L 58.464844 40.230469 L 64.550781 40.230469 L 62.8125 17.449219 L 56.09375 17.449219 L 52.421875 29.160156 L 51.582031 29.160156 L 47.917969 17.449219 L 40.953125 17.449219 Z M 59.71875 8.289062 C 59.605469 6.296875 58.753906 4.503906 57.429688 3.183594 C 56.011719 1.761719 54.050781 0.882812 51.882812 0.882812 C 49.714844 0.882812 47.753906 1.761719 46.335938 3.183594 C 45.011719 4.503906 44.160156 6.296875 44.050781 8.289062 Z M 43.167969 8.289062 C 43.277344 6.054688 44.230469 4.042969 45.710938 2.558594 C 47.292969 0.980469 49.472656 0.00390625 51.882812 0.00390625 C 54.292969 0.00390625 56.472656 0.980469 58.054688 2.558594 C 59.535156 4.042969 60.488281 6.054688 60.597656 8.289062 L 66.300781 8.289062 L 66.375 8.640625 L 74.351562 46.726562 L 74.464844 47.257812 L 37.710938 47.257812 L 37.753906 46.777344 L 38.261719 41.109375 L 30.589844 41.109375 L 30.699219 40.578125 L 37.390625 8.640625 L 37.464844 8.289062 Z M 43.167969 8.289062 " fill-opacity="1" fill-rule="nonzero"/></g></svg>