<svg xmlns="http://www.w3.org/2000/svg" xmlns:xlink="http://www.w3.org/1999/xlink" width="256" zoomAndPan="magnify" viewBox="0 0 192 48" height="64" preserveAspectRatio="xMidYMid meet" version="1.0"><defs><g/><clipPath id="d3de794e6e"><path d="M 47 0 L 147 0 L 147 47.019531 L 47 47.019531 Z M 47 0 " clip-rule="nonzero"/></clipPath><clipPath id="39a00e7484"><path d="M 0.332031 0 L 99.078125 0 L 99.078125 36 L 0.332031 36 Z M 0.332031 0 " clip-rule="nonzero"/></clipPath><clipPath id="b60e63fa9a"><rect x="0" width="100" y="0" height="36"/></clipPath><clipPath id="b5afeb34da"><path d="M 23 30 L 77 30 L 77 47.019531 L 23 47.019531 Z M 23 30 " clip-rule="nonzero"/></clipPath><clipPath id="8ffa12277b"><rect x="0" width="54" y="0" height="18"/></clipPath><clipPath id="d618645912"><rect x="0" width="100" y="0" height="48"/></clipPath></defs><g clip-path="url(#d3de794e6e)"><g transform="matrix(1, 0, 0, 1, 47, 0.000000000000005041)"><g clip-path="url(#d618645912)"><g clip-path="url(#39a00e7484)"><g transform="matrix(1, 0, 0, 1, -0.000000000000007105, 0.000000000000005041)"><g clip-path="url(#b60e63fa9a)"><g fill="#000000" fill-opacity="1"><g transform="translate(0.59931, 27.819053)"><g><path d="M 21.40625 0 L 21.375 -12.484375 L 15.25 -2.203125 L 13.078125 -2.203125 L 6.984375 -12.21875 L 6.984375 0 L 2.46875 0 L 2.46875 -20.8125 L 6.453125 -20.8125 L 14.25 -7.875 L 21.921875 -20.8125 L 25.875 -20.8125 L 25.921875 0 Z M 21.40625 0 "/></g></g></g><g fill="#000000" fill-opacity="1"><g transform="translate(30.485477, 27.819053)"><g><path d="M 16.171875 -4.453125 L 6.515625 -4.453125 L 4.671875 0 L -0.265625 0 L 9.015625 -20.8125 L 13.765625 -20.8125 L 23.078125 0 L 18.015625 0 Z M 14.65625 -8.125 L 11.359375 -16.09375 L 8.0625 -8.125 Z M 14.65625 -8.125 "/></g></g></g><g fill="#000000" fill-opacity="1"><g transform="translate(54.75131, 27.819053)"><g><path d="M 6.78125 -16.890625 L 0.125 -16.890625 L 0.125 -20.8125 L 18.25 -20.8125 L 18.25 -16.890625 L 11.59375 -16.890625 L 11.59375 0 L 6.78125 0 Z M 6.78125 -16.890625 "/></g></g></g><g fill="#000000" fill-opacity="1"><g transform="translate(74.616042, 27.819053)"><g><path d="M 16.171875 -4.453125 L 6.515625 -4.453125 L 4.671875 0 L -0.265625 0 L 9.015625 -20.8125 L 13.765625 -20.8125 L 23.078125 0 L 18.015625 0 Z M 14.65625 -8.125 L 11.359375 -16.09375 L 8.0625 -8.125 Z M 14.65625 -8.125 "/></g></g></g></g></g></g><g clip-path="url(#b5afeb34da)"><g transform="matrix(1, 0, 0, 1, 23, 30)"><g clip-path="url(#8ffa12277b)"><g fill="#000000" fill-opacity="1"><g transform="translate(1.207822, 13.784748)"><g><path d="M 3.84375 0.09375 C 3.25 0.09375 2.71875 -0.0078125 2.25 -0.21875 C 1.78125 -0.4375 1.410156 -0.734375 1.140625 -1.109375 C 0.878906 -1.484375 0.742188 -1.914062 0.734375 -2.40625 L 1.984375 -2.40625 C 2.023438 -1.976562 2.195312 -1.617188 2.5 -1.328125 C 2.8125 -1.046875 3.257812 -0.90625 3.84375 -0.90625 C 4.40625 -0.90625 4.847656 -1.046875 5.171875 -1.328125 C 5.492188 -1.609375 5.65625 -1.96875 5.65625 -2.40625 C 5.65625 -2.75 5.5625 -3.023438 5.375 -3.234375 C 5.1875 -3.453125 4.945312 -3.617188 4.65625 -3.734375 C 4.375 -3.847656 3.992188 -3.96875 3.515625 -4.09375 C 2.921875 -4.25 2.441406 -4.40625 2.078125 -4.5625 C 1.722656 -4.71875 1.414062 -4.957031 1.15625 -5.28125 C 0.90625 -5.613281 0.78125 -6.0625 0.78125 -6.625 C 0.78125 -7.113281 0.90625 -7.546875 1.15625 -7.921875 C 1.40625 -8.304688 1.753906 -8.601562 2.203125 -8.8125 C 2.660156 -9.019531 3.179688 -9.125 3.765625 -9.125 C 4.617188 -9.125 5.3125 -8.910156 5.84375 -8.484375 C 6.382812 -8.066406 6.691406 -7.507812 6.765625 -6.8125 L 5.46875 -6.8125 C 5.425781 -7.15625 5.242188 -7.457031 4.921875 -7.71875 C 4.597656 -7.976562 4.175781 -8.109375 3.65625 -8.109375 C 3.164062 -8.109375 2.765625 -7.984375 2.453125 -7.734375 C 2.140625 -7.484375 1.984375 -7.128906 1.984375 -6.671875 C 1.984375 -6.335938 2.078125 -6.066406 2.265625 -5.859375 C 2.453125 -5.660156 2.679688 -5.503906 2.953125 -5.390625 C 3.222656 -5.285156 3.601562 -5.164062 4.09375 -5.03125 C 4.6875 -4.863281 5.164062 -4.695312 5.53125 -4.53125 C 5.894531 -4.375 6.203125 -4.128906 6.453125 -3.796875 C 6.710938 -3.472656 6.84375 -3.023438 6.84375 -2.453125 C 6.84375 -2.015625 6.726562 -1.601562 6.5 -1.21875 C 6.269531 -0.832031 5.925781 -0.515625 5.46875 -0.265625 C 5.007812 -0.0234375 4.46875 0.09375 3.84375 0.09375 Z M 3.84375 0.09375 "/></g></g></g><g fill="#000000" fill-opacity="1"><g transform="translate(11.381142, 13.784748)"><g><path d="M 6.53125 -9 L 6.53125 -8.046875 L 4.078125 -8.046875 L 4.078125 0 L 2.90625 0 L 2.90625 -8.046875 L 0.4375 -8.046875 L 0.4375 -9 Z M 6.53125 -9 "/></g></g></g><g fill="#000000" fill-opacity="1"><g transform="translate(20.959855, 13.784748)"><g><path d="M 5.078125 0.09375 C 4.242188 0.09375 3.476562 -0.0976562 2.78125 -0.484375 C 2.09375 -0.878906 1.550781 -1.425781 1.15625 -2.125 C 0.757812 -2.832031 0.5625 -3.628906 0.5625 -4.515625 C 0.5625 -5.390625 0.757812 -6.175781 1.15625 -6.875 C 1.550781 -7.582031 2.09375 -8.128906 2.78125 -8.515625 C 3.476562 -8.910156 4.242188 -9.109375 5.078125 -9.109375 C 5.921875 -9.109375 6.6875 -8.910156 7.375 -8.515625 C 8.0625 -8.128906 8.601562 -7.585938 9 -6.890625 C 9.394531 -6.191406 9.59375 -5.398438 9.59375 -4.515625 C 9.59375 -3.617188 9.394531 -2.820312 9 -2.125 C 8.601562 -1.425781 8.0625 -0.878906 7.375 -0.484375 C 6.6875 -0.0976562 5.921875 0.09375 5.078125 0.09375 Z M 5.078125 -0.9375 C 5.703125 -0.9375 6.265625 -1.082031 6.765625 -1.375 C 7.273438 -1.664062 7.675781 -2.082031 7.96875 -2.625 C 8.257812 -3.164062 8.40625 -3.796875 8.40625 -4.515625 C 8.40625 -5.234375 8.257812 -5.859375 7.96875 -6.390625 C 7.675781 -6.929688 7.28125 -7.347656 6.78125 -7.640625 C 6.28125 -7.941406 5.710938 -8.09375 5.078125 -8.09375 C 4.441406 -8.09375 3.875 -7.941406 3.375 -7.640625 C 2.875 -7.347656 2.476562 -6.929688 2.1875 -6.390625 C 1.894531 -5.859375 1.75 -5.234375 1.75 -4.515625 C 1.75 -3.796875 1.894531 -3.164062 2.1875 -2.625 C 2.476562 -2.082031 2.875 -1.664062 3.375 -1.375 C 3.882812 -1.082031 4.453125 -0.9375 5.078125 -0.9375 Z M 5.078125 -0.9375 "/></g></g></g><g fill="#000000" fill-opacity="1"><g transform="translate(33.705471, 13.784748)"><g><path d="M 5.734375 0 L 3.59375 -3.6875 L 2.171875 -3.6875 L 2.171875 0 L 1 0 L 1 -9 L 3.90625 -9 C 4.582031 -9 5.15625 -8.882812 5.625 -8.65625 C 6.09375 -8.425781 6.441406 -8.113281 6.671875 -7.71875 C 6.910156 -7.320312 7.03125 -6.867188 7.03125 -6.359375 C 7.03125 -5.734375 6.847656 -5.179688 6.484375 -4.703125 C 6.128906 -4.234375 5.597656 -3.921875 4.890625 -3.765625 L 7.140625 0 Z M 2.171875 -4.625 L 3.90625 -4.625 C 4.539062 -4.625 5.015625 -4.78125 5.328125 -5.09375 C 5.648438 -5.40625 5.8125 -5.828125 5.8125 -6.359375 C 5.8125 -6.890625 5.65625 -7.300781 5.34375 -7.59375 C 5.03125 -7.882812 4.550781 -8.03125 3.90625 -8.03125 L 2.171875 -8.03125 Z M 2.171875 -4.625 "/></g></g></g><g fill="#000000" fill-opacity="1"><g transform="translate(44.150239, 13.784748)"><g><path d="M 2.171875 -8.046875 L 2.171875 -5.046875 L 5.453125 -5.046875 L 5.453125 -4.078125 L 2.171875 -4.078125 L 2.171875 -0.96875 L 5.84375 -0.96875 L 5.84375 0 L 1 0 L 1 -9.015625 L 5.84375 -9.015625 L 5.84375 -8.046875 Z M 2.171875 -8.046875 "/></g></g></g></g></g></g></g></g></g></svg>